<svg xmlns="http://www.w3.org/2000/svg" viewBox="0 0 512 512">
  <defs>
    <linearGradient id="grad" x1="0%" y1="0%" x2="100%" y2="100%">
      <stop offset="0%" style="stop-color:#4f46e5;stop-opacity:1" />
      <stop offset="100%" style="stop-color:#818cf8;stop-opacity:1" />
    </linearGradient>
    <filter id="shadow" x="-20%" y="-20%" width="140%" height="140%">
      <feDropShadow dx="0" dy="4" stdDeviation="8" flood-color="#000000" flood-opacity="0.2"/>
    </filter>
  </defs>
  <rect width="512" height="512" rx="120" fill="url(#grad)" filter="url(#shadow)"/>
  <path d="M368 416H144c-17.6 0-32-14.4-32-32V128c0-17.6 14.4-32 32-32h128l96 96v192c0 17.6-14.4 32-32 32zm-64-224h-48v48h48v-48zm-80 0h-48v48h48v-48zm80 80h-48v48h48v-48zm-80 0h-48v48h48v-48zm80 80h-48v48h48v-48zm-80 0h-48v48h48v-48z" fill="#ffffff"/>
</svg>
